{"glyphs":{":":{"x_min":0,"x_max":600,"ha":600,"o":"m 178 0 l 207 149 l 348 149 l 319 0 z m 252 381 l 281 530 l 422 530 l 394 381 z"},"$":{"x_min":0,"x_max":600,"ha":600,"o":"m 260 -83 l 207 -83 l 223 0 q 119 4 69 50 q 20 96 20 190 l 149 213 l 149 208 q 149 154 172 130 q 194 106 243 102 l 280 292 q 279 293 273 295 q 268 296 266 296 q 172 318 135 355 q 97 393 97 449 q 97 491 113 532 q 129 573 162 603 q 194 633 243 649 q 291 665 353 667 l 366 733 l 419 733 l 406 667 q 501 664 545 625 q 589 585 593 497 l 460 478 l 460 481 q 460 562 388 572 l 354 400 l 364 398 q 445 378 480 358 q 515 338 534 309 q 553 279 553 237 q 553 191 535 146 q 517 102 482 71 q 448 40 396 22 q 345 5 277 2 z m 334 574 q 244 567 230 496 l 228 477 q 228 461 234 451 q 241 441 252 434 q 263 426 303 412 z m 423 209 q 423 227 416 238 q 409 249 396 257 q 383 265 367 270 q 350 275 331 281 l 296 102 q 338 104 367 118 q 396 132 409 156 q 423 181 423 209 z"},"?":{"x_min":0,"x_max":600,"ha":600,"o":"m 326 198 l 195 198 q 203 227 215 250 q 228 273 245 293 q 262 312 284 329 q 305 345 369 387 q 410 413 429 438 q 448 462 448 491 q 448 520 424 539 q 400 559 354 559 q 305 559 266 530 q 228 501 212 454 l 74 459 q 106 559 186 614 q 265 669 374 669 q 474 669 532 629 q 589 588 589 517 q 589 456 555 410 q 520 364 455 324 q 392 287 363 259 q 333 231 326 198 z m 153 0 l 178 132 l 319 132 l 294 0 z"},"<":{"x_min":0,"x_max":600,"ha":600,"o":"m 49 252 l 49 409 l 551 600 l 551 489 l 144 330 l 551 172 l 551 61 z"},"'":{"x_min":0,"x_max":600,"ha":600,"o":"m 377 412 l 280 412 l 323 725 l 457 725 z"},"=":{"x_min":0,"x_max":600,"ha":600,"o":"m 49 411 l 49 520 l 551 520 l 551 411 z m 49 142 l 49 250 l 551 250 l 551 142 z"},"a":{"x_min":0,"x_max":600,"ha":600,"o":"m 161 -10 q 96 -10 60 21 q 25 51 25 108 q 25 127 29 149 q 62 316 266 318 l 375 320 l 380 347 q 385 371 385 388 q 385 449 328 449 q 293 449 273 432 q 252 414 240 375 l 99 381 q 154 538 351 538 q 436 538 479 503 q 523 467 523 398 q 523 376 518 348 l 480 156 q 475 129 475 115 q 475 97 483 87 q 490 78 509 78 q 524 78 540 81 l 525 7 q 513 4 502 1 q 492 -1 482 -2 q 472 -4 461 -5 q 450 -6 435 -6 q 389 -6 368 14 q 348 35 348 74 l 349 94 l 346 94 q 304 39 259 15 q 215 -10 161 -10 z m 360 245 l 295 244 q 244 243 219 230 q 195 217 183 190 q 172 162 172 134 q 172 86 219 86 q 267 86 306 124 q 345 163 355 218 z"},"L":{"x_min":0,"x_max":600,"ha":600,"o":"m 52 0 l 180 659 l 324 659 l 217 111 l 518 111 l 497 0 z"},"3":{"x_min":0,"x_max":600,"ha":600,"o":"m 247 -11 q 142 -11 85 32 q 29 76 29 161 q 29 175 29 180 l 171 192 l 171 184 q 171 100 268 100 q 306 100 335 114 q 364 128 380 155 q 396 181 396 209 q 396 243 365 261 q 334 279 275 279 l 227 279 l 249 390 l 293 390 q 360 390 398 418 q 436 447 436 493 q 436 523 414 541 q 393 560 353 560 q 260 560 236 477 l 101 487 q 128 575 201 622 q 273 669 376 669 q 472 669 526 631 q 580 593 580 525 q 580 483 559 443 q 538 403 497 377 q 456 350 399 339 l 399 337 q 466 329 501 297 q 537 264 537 212 q 537 173 516 128 q 495 83 457 53 q 419 22 366 6 q 313 -11 247 -11 z"},";":{"x_min":0,"x_max":600,"ha":600,"o":"m 257 381 l 286 530 l 427 530 l 398 381 z m 73 -177 l 219 146 l 373 146 l 158 -177 z"},"J":{"x_min":0,"x_max":600,"ha":600,"o":"m 222 -10 q 129 -10 83 40 q 36 89 36 181 l 37 196 l 183 217 l 183 208 q 183 157 198 130 q 214 103 245 103 q 281 103 307 132 q 334 161 344 214 l 409 546 l 262 546 l 284 659 l 574 659 l 489 218 q 468 111 397 51 q 326 -10 222 -10 z"},"V":{"x_min":0,"x_max":600,"ha":600,"o":"m 323 0 l 177 0 l 78 659 l 229 659 l 269 280 q 277 208 280 150 q 315 231 340 280 l 527 659 l 676 659 z"},"\"":{"x_min":0,"x_max":600,"ha":600,"o":"m 489 412 l 392 412 l 435 725 l 569 725 z m 266 412 l 169 412 l 212 725 l 345 725 z"},"7":{"x_min":0,"x_max":600,"ha":600,"o":"m 256 0 l 113 0 q 138 127 221 260 q 305 392 460 546 l 119 546 l 141 659 l 610 659 l 589 550 q 433 382 357 254 q 281 126 256 0 z"},"S":{"x_min":0,"x_max":600,"ha":600,"o":"m 245 -10 q 130 -10 68 39 q 5 87 2 179 l 145 197 q 147 151 178 125 q 208 98 270 98 q 318 98 350 110 q 381 121 398 145 q 415 168 415 197 q 415 249 320 273 q 211 301 172 323 q 133 344 111 374 q 90 404 90 446 q 90 490 108 531 q 127 571 166 603 q 205 635 260 652 q 315 669 379 669 q 488 669 542 626 q 595 583 595 492 l 453 478 q 449 567 356 567 q 317 567 290 556 q 262 545 248 523 q 234 502 234 478 q 234 458 245 445 q 257 432 277 423 q 296 413 358 396 q 441 375 481 352 q 521 330 540 299 q 559 268 559 229 q 559 165 521 108 q 482 51 411 21 q 340 -10 245 -10 z"},"}":{"x_min":0,"x_max":600,"ha":600,"o":"m -2 -208 l 17 -114 l 108 -114 q 153 -114 177 -89 q 202 -64 212 -12 l 241 135 q 250 181 283 214 q 317 247 366 258 l 366 260 q 328 269 307 295 q 286 321 286 357 l 289 383 l 317 530 q 321 546 321 567 q 321 632 253 632 l 162 632 l 179 725 l 339 725 q 396 725 428 698 q 459 671 459 619 q 459 600 455 579 l 424 418 q 420 399 420 384 q 420 308 514 306 l 495 210 q 436 209 404 181 q 372 153 361 99 l 331 -62 q 318 -128 271 -168 q 225 -208 158 -208 z"},"Z":{"x_min":0,"x_max":600,"ha":600,"o":"m 504 0 l -9 0 l 11 102 l 425 546 l 134 546 l 156 659 l 612 659 l 593 559 l 179 113 l 526 113 z"},"x":{"x_min":0,"x_max":600,"ha":600,"o":"m 375 0 l 285 191 l 119 0 l -27 0 l 224 273 l 84 528 l 232 528 l 317 355 l 467 528 l 616 528 l 378 274 l 524 0 z"},")":{"x_min":0,"x_max":600,"ha":600,"o":"m 58 -208 q 150 -103 204 -4 q 258 95 285 209 q 313 324 313 423 q 313 502 295 575 q 277 648 239 725 l 376 725 q 449 579 449 430 q 449 332 422 214 q 394 96 340 -5 q 286 -106 195 -208 z"},"&":{"x_min":0,"x_max":600,"ha":600,"o":"m 182 380 q 168 423 168 468 q 168 523 193 568 q 217 614 265 638 q 313 663 378 663 q 443 663 481 633 q 519 604 519 553 q 519 511 498 476 q 477 441 432 410 q 388 379 302 343 q 333 260 378 195 q 431 270 462 354 l 559 340 q 515 224 442 128 q 476 92 518 92 q 545 92 564 101 l 546 5 q 525 -5 498 -5 q 418 -5 362 51 q 272 -9 175 -9 q 84 -9 38 28 q -9 64 -9 134 q -9 212 41 276 q 92 341 182 380 z m 299 117 q 237 206 205 292 q 162 271 137 235 q 112 199 112 156 q 112 119 135 99 q 157 80 197 80 q 248 80 299 117 z m 413 538 q 413 559 400 571 q 388 583 362 583 q 320 583 296 556 q 271 528 271 481 q 271 449 282 419 q 358 452 385 478 q 413 505 413 538 z"},"_":{"x_min":0,"x_max":600,"ha":600,"o":"m -75 -107 l -65 -61 l 539 -61 l 530 -107 z"},"v":{"x_min":0,"x_max":600,"ha":600,"o":"m 327 0 l 163 0 l 66 528 l 211 528 l 254 225 q 258 197 266 103 q 294 166 325 223 l 490 528 l 634 528 z"},"O":{"x_min":0,"x_max":600,"ha":600,"o":"m 247 -10 q 143 -10 90 47 q 36 103 36 215 q 36 295 61 387 q 86 480 130 542 q 174 604 237 637 q 300 669 379 669 q 482 669 536 614 q 590 559 590 448 q 590 368 565 275 q 540 182 495 118 q 450 55 388 23 q 325 -10 247 -10 z m 444 436 q 444 556 357 556 q 305 556 267 512 q 229 469 206 382 q 183 295 183 228 q 183 104 269 104 q 321 104 359 148 q 397 193 420 280 q 444 367 444 436 z"},"(":{"x_min":0,"x_max":600,"ha":600,"o":"m 221 -208 q 149 -63 149 88 q 149 189 177 308 q 206 427 260 526 q 314 626 402 725 l 540 725 q 449 622 395 522 q 341 423 313 309 q 285 194 285 94 q 285 -57 358 -208 z"},"C":{"x_min":0,"x_max":600,"ha":600,"o":"m 188 237 q 188 104 291 104 q 371 104 431 223 l 560 197 q 453 -10 267 -10 q 155 -10 98 48 q 41 106 41 219 q 41 272 52 333 q 119 669 395 669 q 578 669 601 479 l 461 447 q 457 499 435 527 q 412 556 375 556 q 318 556 277 514 q 236 472 212 390 q 188 307 188 237 z"},"W":{"x_min":0,"x_max":600,"ha":600,"o":"m 446 0 l 325 0 l 317 152 q 315 181 310 311 q 309 308 173 0 l 52 0 l 77 659 l 203 659 l 181 319 q 179 278 163 189 q 179 232 213 309 l 294 474 l 389 474 q 398 374 404 318 q 409 273 409 233 q 409 222 409 212 l 409 189 l 413 203 q 432 283 443 319 l 550 659 l 676 659 z"},"A":{"x_min":0,"x_max":600,"ha":600,"o":"m 549 0 l 405 0 l 392 161 l 169 161 l 93 0 l -51 0 l 293 659 l 461 659 z m 360 570 q 352 550 337 517 q 322 483 220 270 l 382 270 l 366 455 l 360 553 z"},"f":{"x_min":0,"x_max":600,"ha":600,"o":"m 352 436 l 268 0 l 131 0 l 215 436 l 90 436 l 108 528 l 233 528 l 241 569 q 258 653 319 696 q 381 739 480 739 q 559 739 638 726 l 620 636 q 548 645 486 645 q 438 645 411 625 q 385 604 375 556 l 370 528 l 586 528 l 568 436 z"},"Q":{"x_min":0,"x_max":600,"ha":600,"o":"m 329 0 q 336 -46 363 -68 q 389 -91 441 -91 q 463 -91 502 -84 l 483 -183 q 418 -197 363 -197 q 283 -197 239 -152 q 195 -107 184 -3 q 36 28 36 214 q 36 295 61 387 q 86 479 130 542 q 174 604 236 636 q 299 669 379 669 q 482 669 536 614 q 590 559 590 448 q 590 355 558 252 q 526 148 469 85 q 411 21 329 0 z m 444 436 q 444 556 357 556 q 305 556 267 512 q 229 469 206 382 q 183 295 183 228 q 183 104 269 104 q 321 104 359 148 q 397 193 420 280 q 444 367 444 436 z"},"w":{"x_min":0,"x_max":600,"ha":600,"o":"m 451 0 l 332 0 l 307 230 l 303 280 q 300 272 295 260 q 289 248 162 0 l 43 0 l 57 528 l 168 528 l 151 232 q 146 159 139 122 l 156 158 l 279 399 l 374 399 l 398 177 q 402 143 402 122 q 410 160 434 232 l 536 528 l 646 528 z"},"-":{"x_min":0,"x_max":600,"ha":600,"o":"m 146 200 l 169 319 l 452 319 l 429 200 z"},"E":{"x_min":0,"x_max":600,"ha":600,"o":"m 16 0 l 144 659 l 616 659 l 595 547 l 266 547 l 235 389 l 534 389 l 513 278 l 214 278 l 181 111 l 530 111 l 508 0 z"},"s":{"x_min":0,"x_max":600,"ha":600,"o":"m 250 -10 q 140 -10 89 25 q 38 60 33 132 l 158 150 q 160 112 182 97 q 205 81 267 81 q 325 81 354 96 q 383 110 389 142 l 390 153 q 390 172 371 185 q 352 198 309 207 q 211 227 175 243 q 138 259 119 284 q 99 309 99 346 q 99 401 130 446 q 162 491 220 515 q 278 539 357 539 q 452 539 502 502 q 552 465 553 396 l 429 383 q 429 417 408 432 q 388 447 339 447 q 291 447 264 435 q 237 422 231 393 l 230 383 q 230 365 247 354 q 265 342 302 334 l 354 322 q 422 307 455 291 q 487 274 504 249 q 521 225 521 188 q 521 130 488 85 q 455 39 393 15 q 331 -10 250 -10 z"},">":{"x_min":0,"x_max":600,"ha":600,"o":"m 49 61 l 49 172 l 456 330 l 49 489 l 49 600 l 551 409 l 551 252 z"},"l":{"x_min":0,"x_max":600,"ha":600,"o":"m 230 160 z m 405 95 l 527 93 l 509 0 l 358 2 q 350 2 342 2 q 293 2 281 8 q 236 25 224 62 q 221 69 221 82 q 221 108 230 160 l 322 632 l 181 632 l 198 725 l 477 725 l 366 150 q 365 144 365 138 q 365 125 371 116 q 383 98 405 95 z m 407 93 z m 366 150 z"},"8":{"x_min":0,"x_max":600,"ha":600,"o":"m 247 -10 q 145 -10 89 30 q 34 70 34 145 q 34 194 56 237 q 78 280 119 309 q 160 337 209 345 l 209 347 q 162 358 136 391 q 111 423 111 465 q 111 519 145 568 q 178 616 238 643 q 298 669 377 669 q 474 669 526 633 q 578 597 578 530 q 578 463 533 412 q 488 361 421 348 l 421 346 q 475 338 505 305 q 535 272 535 222 q 535 161 500 105 q 465 50 399 20 q 334 -10 247 -10 z m 434 511 q 434 573 358 573 q 324 573 299 559 q 275 544 262 518 q 250 491 250 460 q 250 395 325 395 q 362 395 387 411 q 413 427 424 457 q 434 487 434 511 z m 395 225 q 395 298 304 298 q 265 298 236 281 q 208 264 193 231 q 178 198 178 163 q 178 87 267 87 q 309 87 338 105 q 366 123 381 158 q 395 193 395 225 z"},"\\":{"x_min":0,"x_max":600,"ha":600,"o":"m 390 -10 l 134 725 l 245 725 l 503 -10 z"},"e":{"x_min":0,"x_max":600,"ha":600,"o":"m 252 -10 q 151 -10 96 41 q 41 92 41 188 q 41 250 62 317 q 83 384 125 435 q 168 486 229 512 q 290 538 361 538 q 457 538 507 485 q 557 433 557 334 q 557 292 547 242 l 546 238 l 188 238 q 183 213 183 189 q 183 137 208 110 q 233 82 277 82 q 315 82 345 98 q 376 114 391 145 l 518 134 q 478 65 408 28 q 339 -10 252 -10 z m 342 452 q 292 452 256 418 q 219 384 206 324 l 430 324 l 432 352 q 432 401 407 427 q 382 452 342 452 z"},"b":{"x_min":0,"x_max":600,"ha":600,"o":"m 17 0 l 28 47 l 43 115 l 162 725 l 299 725 l 262 532 l 244 445 l 245 445 q 273 490 318 514 q 363 539 417 539 q 489 539 526 493 q 563 448 563 363 q 563 298 544 227 q 525 155 490 101 q 455 47 408 19 q 361 -10 307 -10 q 255 -10 222 15 q 188 40 176 86 l 174 86 q 169 62 161 35 q 153 7 150 0 z m 200 195 q 200 143 220 114 q 241 84 276 84 q 318 84 350 119 q 381 154 400 221 q 418 288 418 345 q 418 445 346 445 q 297 445 261 398 q 225 351 208 267 q 200 227 200 195 z"},"%":{"x_min":0,"x_max":600,"ha":600,"o":"m 64 0 l -21 0 l 562 661 l 648 661 z m 220 665 q 332 665 332 557 q 332 519 321 475 q 309 431 286 399 q 262 367 230 350 q 197 334 154 334 q 40 334 40 445 q 40 482 52 528 q 64 573 87 604 q 110 635 143 650 q 175 665 220 665 z m 246 548 q 246 576 235 587 q 225 599 206 599 q 182 599 165 581 q 148 563 137 523 q 126 483 126 455 q 126 402 168 402 q 190 402 207 421 q 225 439 235 478 q 246 517 246 548 z m 474 325 q 586 325 586 217 q 586 161 565 106 q 544 52 505 23 q 465 -6 408 -6 q 294 -6 294 105 q 294 143 306 187 q 318 232 341 263 q 364 294 396 310 q 429 325 474 325 z m 500 208 q 500 236 490 248 q 479 259 460 259 q 436 259 419 241 q 402 224 392 184 q 381 144 381 115 q 381 62 422 62 q 444 62 462 81 q 479 99 490 138 q 500 177 500 208 z"},"m":{"x_min":0,"x_max":600,"ha":600,"o":"m 193 0 l 256 321 q 267 382 267 408 q 267 431 260 441 q 253 451 238 451 q 214 451 190 405 q 167 359 152 284 l 97 0 l -15 0 l 66 416 q 69 432 73 450 q 76 469 78 485 q 81 501 83 513 q 85 525 85 528 l 187 528 l 178 466 l 173 443 l 174 443 q 202 495 232 517 q 262 538 298 538 q 341 538 358 515 q 375 492 375 445 l 375 442 l 375 442 q 405 494 437 516 q 468 538 509 538 q 552 538 572 516 q 591 493 591 444 q 591 408 581 352 l 512 0 l 401 0 l 463 321 q 475 382 475 408 q 475 431 468 441 q 460 451 446 451 q 421 451 399 411 q 377 372 362 293 l 305 0 z"},"#":{"x_min":0,"x_max":600,"ha":600,"o":"m 492 408 l 428 250 l 543 250 l 529 177 l 397 177 l 325 0 l 250 0 l 322 177 l 171 177 l 99 0 l 24 0 l 97 177 l 12 177 l 26 250 l 126 250 l 191 408 l 81 408 l 95 480 l 221 480 l 294 659 l 369 659 l 296 480 l 447 480 l 520 659 l 595 659 l 522 480 l 612 480 l 598 408 z m 266 408 l 201 250 l 352 250 l 417 408 z"},",":{"x_min":0,"x_max":600,"ha":600,"o":"m 40 -177 l 186 146 l 339 146 l 125 -177 z"},"n":{"x_min":0,"x_max":600,"ha":600,"o":"m 351 0 l 410 302 q 417 338 417 364 q 417 401 401 418 q 386 436 352 436 q 303 436 264 394 q 225 352 211 283 l 156 0 l 19 0 l 98 410 q 114 491 117 528 l 248 528 q 248 521 244 485 q 239 450 234 423 l 236 423 q 311 539 428 539 q 561 539 561 405 q 561 374 553 335 l 488 0 z"},"h":{"x_min":0,"x_max":600,"ha":600,"o":"m 236 423 q 275 483 323 511 q 370 538 428 538 q 561 538 561 408 q 561 374 553 335 l 488 0 l 351 0 l 410 303 q 417 341 417 366 q 417 399 403 417 q 388 435 351 435 q 301 435 263 393 q 225 351 211 283 l 156 0 l 19 0 l 159 725 l 296 725 l 258 527 q 252 492 238 440 l 234 423 z"},"z":{"x_min":0,"x_max":600,"ha":600,"o":"m 16 0 l 35 97 l 378 429 l 120 429 l 139 528 l 553 528 l 534 430 l 193 100 l 494 100 l 475 0 z"},"B":{"x_min":0,"x_max":600,"ha":600,"o":"m 300 0 l 16 0 l 144 659 l 400 659 q 491 659 540 627 q 588 595 588 531 q 588 461 546 412 q 504 362 424 346 q 495 338 531 306 q 568 274 568 221 q 568 182 550 140 q 533 98 497 65 q 461 33 411 17 q 360 0 300 0 z m 438 497 q 438 552 369 552 l 267 552 l 237 396 l 340 396 q 420 396 436 474 q 438 487 438 497 z m 424 223 q 424 255 402 272 q 380 290 338 290 l 216 290 l 181 107 l 306 107 q 344 107 370 122 q 396 136 410 165 q 424 193 424 223 z"},"K":{"x_min":0,"x_max":600,"ha":600,"o":"m 379 0 l 274 272 l 199 203 l 159 0 l 15 0 l 143 659 l 287 659 l 230 366 l 500 659 l 667 659 l 388 376 l 549 0 z"},"R":{"x_min":0,"x_max":600,"ha":600,"o":"m 386 0 l 293 251 l 208 251 l 160 0 l 16 0 l 144 659 l 385 659 q 497 659 553 620 q 608 582 608 509 q 608 475 597 438 q 586 401 563 371 q 541 340 506 317 q 472 294 433 284 l 548 0 z m 460 480 q 460 517 431 532 q 402 547 348 547 l 266 547 l 230 363 l 316 363 q 439 363 458 458 z"},"T":{"x_min":0,"x_max":600,"ha":600,"o":"m 427 547 l 321 0 l 177 0 l 283 547 l 85 547 l 106 659 l 647 659 l 625 547 z"},"P":{"x_min":0,"x_max":600,"ha":600,"o":"m 301 232 l 205 232 l 159 0 l 15 0 l 143 659 l 377 659 q 486 659 543 619 q 599 579 599 501 q 599 449 577 397 q 556 345 517 309 q 479 272 424 252 q 369 232 301 232 z m 451 475 q 451 514 423 530 q 395 547 340 547 l 266 547 l 226 343 l 304 343 q 428 343 448 448 q 451 463 451 475 z"},"|":{"x_min":0,"x_max":600,"ha":600,"o":"m 236 -222 l 236 725 l 364 725 l 364 -222 z"},"t":{"x_min":0,"x_max":600,"ha":600,"o":"m 193 436 l 112 436 l 130 528 l 218 528 l 288 666 l 374 666 l 347 528 l 535 528 l 517 436 l 329 436 l 279 177 q 273 147 273 136 q 273 110 291 98 q 309 87 347 87 q 407 87 474 100 l 456 9 q 437 6 419 3 q 400 0 381 -2 q 362 -4 341 -5 q 319 -6 294 -6 q 215 -6 174 21 q 133 49 133 109 q 133 124 136 140 q 138 157 193 436 z"},"M":{"x_min":0,"x_max":600,"ha":600,"o":"m 392 0 l 475 424 q 479 449 492 498 q 504 547 511 571 q 458 438 442 404 l 337 176 l 230 176 l 213 404 q 210 453 208 571 q 195 463 187 424 l 104 0 l -3 0 l 125 659 l 294 659 l 313 415 l 314 392 q 314 371 310 302 q 334 375 351 415 l 465 659 l 628 659 l 500 0 z"},"g":{"x_min":0,"x_max":600,"ha":600,"o":"m 208 -212 q 118 -212 68 -175 q 19 -137 18 -70 l 158 -54 q 159 -85 178 -104 q 198 -123 229 -123 q 329 -123 357 18 l 375 103 l 374 103 q 340 52 293 29 q 247 6 194 6 q 125 6 89 49 q 52 93 52 175 q 52 238 71 310 q 90 382 124 433 q 158 484 205 510 q 251 537 308 537 q 360 537 394 512 q 428 488 439 443 l 442 443 q 458 511 465 528 l 595 528 l 584 479 l 569 406 l 493 16 q 471 -96 397 -154 q 324 -212 208 -212 z m 415 338 q 415 386 395 414 q 375 442 338 442 q 296 442 264 408 q 232 374 215 311 q 197 248 197 199 q 197 101 271 101 q 313 101 346 135 q 379 169 397 229 q 415 289 415 338 z"},"j":{"x_min":0,"x_max":600,"ha":600,"o":"m 106 -208 q 67 -208 29 -201 q -9 -195 -30 -187 l -10 -84 q 53 -101 115 -101 q 169 -101 196 -74 q 224 -48 234 5 l 317 436 l 145 436 l 163 528 l 473 528 l 369 -6 q 357 -69 320 -115 q 283 -160 228 -184 q 172 -208 106 -208 z m 354 624 l 374 725 l 511 725 l 492 624 z"},"i":{"x_min":0,"x_max":600,"ha":600,"o":"m 354 93 l 527 93 l 509 0 l 6 0 l 24 93 l 217 93 l 284 436 l 142 436 l 160 528 l 439 528 z m 320 624 l 340 725 l 477 725 l 458 624 z"},"y":{"x_min":0,"x_max":600,"ha":600,"o":"m 67 -208 q 15 -208 -21 -201 l -1 -104 l 23 -106 l 47 -107 q 89 -107 118 -86 q 146 -65 174 -18 l 187 5 l 70 528 l 215 528 l 258 271 q 259 267 260 258 q 261 250 262 241 q 263 233 269 172 q 275 110 275 108 l 284 126 l 351 269 l 489 528 l 632 528 l 306 -28 q 246 -129 193 -168 q 139 -208 67 -208 z"},"@":{"x_min":0,"x_max":600,"ha":600,"o":"m 390 51 q 333 51 333 104 q 333 116 335 127 l 341 151 l 338 151 q 313 107 277 79 q 240 51 204 51 q 164 51 143 80 q 123 109 123 164 q 123 246 160 338 q 197 430 253 484 q 310 538 368 538 q 398 538 415 518 q 431 499 431 462 l 431 453 l 434 453 l 464 527 l 530 527 l 434 279 q 404 202 395 172 q 386 143 386 129 q 386 117 392 114 q 397 110 405 110 q 437 110 469 164 q 500 217 523 309 q 547 400 547 468 q 547 560 510 611 q 473 663 405 663 q 339 663 281 620 q 222 577 176 500 q 130 423 102 320 q 73 216 73 134 q 73 35 114 -20 q 154 -76 229 -76 q 274 -76 320 -59 q 366 -42 424 1 l 450 -46 q 381 -96 325 -117 q 269 -138 212 -138 q 113 -138 59 -69 q 5 0 5 122 q 5 217 39 335 q 73 454 130 542 q 187 629 260 677 q 334 725 417 725 q 511 725 562 660 q 613 596 613 482 q 613 392 580 282 q 547 173 497 112 q 446 51 390 51 z m 396 426 q 396 478 357 478 q 322 478 285 429 q 248 381 222 303 q 197 225 197 166 q 197 112 228 112 q 251 112 275 133 q 298 154 322 195 q 345 236 371 313 q 396 386 396 422 q 396 424 396 426 z"},".":{"x_min":0,"x_max":600,"ha":600,"o":"m 178 0 l 207 149 l 348 149 l 319 0 z"},"p":{"x_min":0,"x_max":600,"ha":600,"o":"m 252 528 l 252 524 q 252 492 243 442 l 245 442 q 276 488 321 513 q 365 539 418 539 q 487 539 525 491 q 562 444 562 357 q 562 269 529 178 q 496 87 438 39 q 380 -10 306 -10 q 254 -10 220 14 q 187 38 174 83 l 173 83 l 158 -3 l 118 -208 l -20 -208 l 101 413 q 107 442 120 528 z m 199 190 q 199 139 219 111 q 239 83 275 83 q 318 83 350 119 q 381 154 400 220 q 418 287 418 343 q 418 445 347 445 q 307 445 272 409 q 238 373 219 309 q 199 245 199 190 z"},"X":{"x_min":0,"x_max":600,"ha":600,"o":"m 397 0 l 296 241 l 101 0 l -51 0 l 240 347 l 97 659 l 249 659 l 337 449 l 505 659 l 657 659 l 387 347 l 549 0 z"},"*":{"x_min":0,"x_max":600,"ha":600,"o":"m 408 590 l 533 641 l 547 545 l 419 515 l 490 411 l 389 352 l 341 475 l 245 352 l 166 412 l 278 515 l 162 545 l 214 641 l 321 590 l 338 724 l 443 724 z"},"Y":{"x_min":0,"x_max":600,"ha":600,"o":"m 320 0 l 177 0 l 229 271 l 78 659 l 229 659 l 322 382 l 524 659 l 675 659 l 373 271 z"},"c":{"x_min":0,"x_max":600,"ha":600,"o":"m 251 -10 q 152 -10 99 41 q 45 91 45 185 q 45 250 68 319 q 90 388 132 437 q 174 487 232 512 q 290 538 360 538 q 453 538 505 492 q 557 445 557 364 l 557 362 l 417 355 l 417 364 q 417 398 400 421 q 382 444 339 444 q 292 444 260 411 q 229 378 209 311 q 189 244 189 188 q 189 84 271 84 q 310 84 341 109 q 373 133 388 182 l 524 176 q 507 123 468 80 q 428 38 372 14 q 316 -10 251 -10 z"},"!":{"x_min":0,"x_max":600,"ha":600,"o":"m 346 208 l 233 208 l 305 659 l 449 659 z m 177 0 l 203 132 l 343 132 l 318 0 z"},"/":{"x_min":0,"x_max":600,"ha":600,"o":"m -10 -10 l 534 725 l 645 725 l 104 -10 z"},"[":{"x_min":0,"x_max":600,"ha":600,"o":"m 90 -208 l 271 725 l 565 725 l 548 632 l 384 632 l 239 -114 l 403 -114 l 384 -208 z"},"6":{"x_min":0,"x_max":600,"ha":600,"o":"m 260 -10 q 165 -10 113 49 q 62 107 62 216 q 62 292 87 385 q 111 477 155 541 q 198 605 258 637 q 318 669 395 669 q 483 669 526 630 q 568 592 574 511 l 441 493 q 438 529 419 545 q 400 561 371 561 q 315 561 274 508 q 232 455 212 353 q 242 389 284 409 q 327 428 376 428 q 454 428 497 386 q 541 344 541 271 q 541 218 520 164 q 500 109 463 71 q 426 33 374 11 q 323 -10 260 -10 z m 400 246 q 400 283 380 305 q 359 327 317 327 q 283 327 255 310 q 226 293 210 264 q 195 235 195 194 q 195 151 217 124 q 238 97 276 97 q 312 97 340 117 q 368 136 384 172 q 400 208 400 246 z"},"r":{"x_min":0,"x_max":600,"ha":600,"o":"m 557 414 q 505 423 456 423 q 380 423 324 366 q 268 309 249 214 l 208 0 l 71 0 l 137 342 q 149 409 149 483 l 148 528 l 280 528 q 283 490 283 466 q 283 439 281 417 l 283 417 q 320 483 368 511 q 415 538 480 538 q 532 538 580 530 z"},"2":{"x_min":0,"x_max":600,"ha":600,"o":"m 9 0 l 27 95 q 103 210 273 327 q 365 390 401 427 q 436 463 436 501 q 436 529 417 544 q 397 560 359 560 q 315 560 287 536 q 259 512 243 465 l 106 473 q 136 568 206 618 q 276 669 379 669 q 472 669 525 630 q 578 592 578 524 q 578 459 533 401 q 487 343 401 284 q 290 208 251 177 q 213 146 193 113 l 512 113 l 490 0 z"},"{":{"x_min":0,"x_max":600,"ha":600,"o":"m 259 -208 q 201 -208 170 -179 q 140 -150 140 -99 q 140 -83 144 -62 l 174 99 q 178 116 178 133 q 178 170 156 189 q 134 209 84 210 l 103 306 q 161 308 194 335 q 226 363 237 418 l 268 579 q 282 650 327 688 q 372 725 440 725 l 600 725 l 582 632 l 490 632 q 446 632 421 606 q 396 581 386 530 l 357 383 q 348 335 313 302 q 279 269 232 260 l 232 258 q 271 248 291 222 q 312 197 312 160 q 312 146 310 135 l 281 -12 q 277 -33 277 -49 q 277 -82 293 -98 q 310 -114 345 -114 l 437 -114 l 418 -208 z"},"9":{"x_min":0,"x_max":600,"ha":600,"o":"m 230 -10 q 139 -10 95 29 q 51 68 46 152 l 179 170 q 184 98 252 98 q 308 98 350 149 q 392 201 413 302 q 387 266 341 245 q 295 224 246 224 q 171 224 128 267 q 85 311 85 388 q 85 443 105 497 q 125 550 164 589 q 203 628 257 649 q 311 669 375 669 q 568 669 568 461 q 568 384 543 288 q 518 193 474 126 q 429 59 368 24 q 306 -10 230 -10 z m 431 466 q 431 511 410 536 q 388 562 351 562 q 316 562 288 542 q 260 522 243 487 q 227 451 227 413 q 227 372 248 349 q 269 326 305 326 q 358 326 395 365 q 431 403 431 466 z"}," ":{"x_min":0,"x_max":600,"ha":600,"o":""},"I":{"x_min":0,"x_max":600,"ha":600,"o":"m 153 659 l 601 659 l 579 547 l 425 547 l 340 111 l 494 111 l 473 0 l 25 0 l 47 111 l 201 111 l 286 547 l 132 547 z"},"H":{"x_min":0,"x_max":600,"ha":600,"o":"m 337 0 l 392 280 l 215 280 l 160 0 l 16 0 l 144 659 l 288 659 l 238 399 l 415 399 l 465 659 l 609 659 l 481 0 z"},"4":{"x_min":0,"x_max":600,"ha":600,"o":"m 455 140 l 427 0 l 296 0 l 324 140 l 11 140 l 31 243 l 402 659 l 555 659 l 474 242 l 566 242 l 546 140 z m 406 540 q 402 533 385 512 q 369 491 358 477 q 348 464 146 242 l 343 242 l 387 465 q 402 528 406 540 z"},"~":{"x_min":0,"x_max":600,"ha":600,"o":"m 420 252 q 384 252 351 262 q 317 272 283 285 q 221 308 180 308 q 145 308 114 298 q 83 288 47 265 l 67 369 q 129 410 207 410 q 258 410 321 387 q 384 364 407 358 q 430 353 450 353 q 515 353 579 398 l 559 291 q 523 270 493 261 q 462 252 420 252 z"},"D":{"x_min":0,"x_max":600,"ha":600,"o":"m 220 0 l 15 0 l 143 659 l 319 659 q 585 659 585 434 q 585 358 559 271 q 533 184 485 123 q 438 62 370 31 q 303 0 220 0 z m 438 415 q 438 485 403 516 q 367 547 295 547 l 265 547 l 180 111 l 230 111 q 386 111 430 334 q 438 380 438 415 z"},"^":{"x_min":0,"x_max":600,"ha":600,"o":"m 448 251 l 360 618 l 130 251 l 20 251 l 295 688 l 453 688 l 560 251 z"},"0":{"x_min":0,"x_max":600,"ha":600,"o":"m 245 -10 q 152 -10 104 43 q 56 96 56 199 q 56 275 79 373 q 103 471 144 538 q 185 604 243 637 q 300 669 381 669 q 570 669 570 465 q 570 390 547 293 q 524 197 481 128 q 438 59 379 24 q 319 -10 245 -10 z m 435 470 q 435 517 417 539 q 398 562 359 562 q 303 562 271 517 q 239 473 214 365 q 190 257 190 192 q 190 141 210 119 q 230 98 267 98 q 322 98 355 146 q 389 195 412 302 q 435 409 435 470 z m 250 271 l 273 393 l 378 393 l 354 271 z"},"F":{"x_min":0,"x_max":600,"ha":600,"o":"m 281 547 l 244 360 l 547 360 l 526 249 l 223 249 l 174 0 l 30 0 l 158 659 l 617 659 l 595 547 z"},"`":{"x_min":0,"x_max":600,"ha":600,"o":"m 396 578 l 252 691 l 256 712 l 382 712 l 482 593 l 479 578 z"},"k":{"x_min":0,"x_max":600,"ha":600,"o":"m 371 0 l 276 239 l 209 198 l 170 0 l 33 0 l 174 725 l 311 725 l 230 310 l 461 528 l 609 528 l 383 322 l 521 0 z"},"u":{"x_min":0,"x_max":600,"ha":600,"o":"m 254 528 l 197 232 q 191 201 191 176 q 191 93 254 93 q 298 93 335 136 q 373 180 385 245 l 439 528 l 577 528 l 497 118 q 490 86 485 49 q 479 11 478 0 l 347 0 q 351 45 362 105 l 359 105 q 285 -10 177 -10 q 45 -10 45 124 q 45 156 52 193 l 117 528 z"},"]":{"x_min":0,"x_max":600,"ha":600,"o":"m 32 -208 l 51 -114 l 215 -114 l 360 632 l 196 632 l 213 725 l 507 725 l 326 -208 z"},"U":{"x_min":0,"x_max":600,"ha":600,"o":"m 239 -10 q 142 -10 97 32 q 51 74 51 161 q 51 204 62 258 l 140 659 l 284 659 l 206 259 q 197 213 197 179 q 197 138 213 120 q 230 103 265 103 q 315 103 346 140 q 376 177 393 264 l 470 659 l 614 659 l 538 265 q 510 125 437 58 q 364 -10 239 -10 z"},"o":{"x_min":0,"x_max":600,"ha":600,"o":"m 245 -10 q 143 -10 90 41 q 37 92 37 187 q 37 277 76 363 q 115 449 186 493 q 256 538 354 538 q 564 538 564 351 q 564 314 555 265 q 530 133 449 62 q 369 -10 245 -10 z m 421 349 q 421 398 401 421 q 381 444 338 444 q 286 444 252 412 q 219 380 200 310 q 180 240 180 185 q 180 84 261 84 q 314 84 348 117 q 382 149 402 221 q 421 293 421 349 z"},"N":{"x_min":0,"x_max":600,"ha":600,"o":"m 314 0 l 222 493 l 216 426 q 208 346 203 320 l 140 0 l 15 0 l 143 659 l 307 659 l 401 152 q 410 269 422 331 l 485 659 l 611 659 l 483 0 z"},"+":{"x_min":0,"x_max":600,"ha":600,"o":"m 354 278 l 354 79 l 244 79 l 244 278 l 49 278 l 49 387 l 244 387 l 244 586 l 354 586 l 354 387 l 551 387 l 551 278 z"},"G":{"x_min":0,"x_max":600,"ha":600,"o":"m 257 -10 q 151 -10 96 52 q 41 113 41 225 q 41 303 68 396 q 94 489 138 549 q 182 609 245 639 q 308 669 390 669 q 478 669 524 624 q 571 579 580 486 l 441 459 q 434 556 370 556 q 312 556 274 516 q 236 477 212 391 q 188 304 188 236 q 188 105 287 105 q 313 105 344 116 q 375 126 395 142 l 417 256 l 284 256 l 304 363 l 570 363 l 517 90 q 379 -10 257 -10 z"},"q":{"x_min":0,"x_max":600,"ha":600,"o":"m 583 528 l 572 482 l 557 413 l 436 -208 l 299 -208 l 339 -3 l 356 83 l 355 83 q 327 39 282 15 q 237 -10 183 -10 q 110 -10 74 36 q 37 81 37 165 q 37 229 56 300 q 74 372 109 426 q 145 480 192 510 q 239 539 293 539 q 345 539 377 514 q 410 489 424 442 l 426 442 q 429 456 438 489 q 447 522 450 528 z m 400 334 q 400 386 379 416 q 359 445 324 445 q 282 445 250 409 q 218 374 200 306 q 182 237 182 184 q 182 83 254 83 q 302 83 339 130 q 375 176 392 262 q 400 302 400 334 z"},"d":{"x_min":0,"x_max":600,"ha":600,"o":"m 348 0 l 348 4 q 348 15 351 43 q 354 72 357 86 l 355 86 q 322 37 280 14 q 237 -10 182 -10 q 112 -10 75 37 q 38 84 38 170 q 38 234 58 307 q 78 380 112 432 q 146 483 192 510 q 238 537 294 537 q 347 537 381 513 q 415 488 426 444 l 427 444 l 442 531 l 480 725 l 617 725 l 499 115 q 493 86 480 0 z m 401 338 q 401 390 380 417 q 360 444 325 444 q 282 444 250 408 q 218 373 200 305 q 182 236 182 185 q 182 84 253 84 q 284 84 312 106 q 340 127 361 168 q 382 208 393 267 q 401 307 401 338 z"},"1":{"x_min":0,"x_max":600,"ha":600,"o":"m 21 0 l 42 102 l 231 102 l 316 537 q 289 497 226 469 q 164 442 102 442 l 123 547 q 191 547 250 577 q 310 607 347 659 l 477 659 l 369 102 l 526 102 l 506 0 z"},"5":{"x_min":0,"x_max":600,"ha":600,"o":"m 240 -10 q 140 -10 86 35 q 33 80 33 164 l 33 172 l 172 183 q 175 99 263 99 q 304 99 335 118 q 366 138 384 174 q 401 210 401 247 q 401 286 378 308 q 355 331 311 331 q 253 331 209 286 l 75 286 l 171 659 l 585 659 l 565 557 l 276 557 l 234 397 q 293 441 367 441 q 452 441 499 397 q 545 352 545 274 q 545 198 506 131 q 467 63 397 27 q 328 -10 240 -10 z"}}}
